<svg width="29" height="29" viewBox="0 0 29 29" fill="none" xmlns="http://www.w3.org/2000/svg">
    <path d="M21.0921 0.712109C23.0987 0.586701 25.0773 1.28342 26.5683 2.64898C27.9339 4.13995 28.6306 6.11862 28.5191 8.13909V21.1537C28.6445 23.1742 27.9339 25.1529 26.5823 26.6438C25.0913 28.0094 23.0987 28.7061 21.0921 28.5807H8.07735C6.05686 28.7061 4.07818 28.0094 2.58719 26.6438C1.22162 25.1529 0.524902 23.1742 0.650311 21.1537V8.13909C0.524902 6.11862 1.22162 4.13995 2.58719 2.64898C4.07818 1.28342 6.05686 0.586701 8.07735 0.712109H21.0921ZM20.7298 7.08009C19.8659 6.21616 18.4724 6.21616 17.6085 7.08009L16.6749 8.02762C16.5355 8.16696 16.5355 8.40384 16.6749 8.54319C16.6749 8.54319 16.7022 8.57037 16.7509 8.61876L17.0937 8.95964C17.2919 9.1569 17.5394 9.40324 17.7879 9.65096L18.6305 10.4932C18.8063 10.6698 18.923 10.7882 18.9323 10.8005C19.0855 10.9678 19.1831 11.1907 19.1831 11.4415C19.1831 11.9432 18.779 12.3612 18.2634 12.3612C18.0265 12.3612 17.8036 12.2636 17.6503 12.1104L15.3232 9.79727C15.2118 9.6858 15.0167 9.6858 14.9052 9.79727L8.2585 16.4439C7.79867 16.9038 7.53391 17.5169 7.51998 18.1718L7.43637 21.4742C7.43637 21.6554 7.49211 21.8226 7.61752 21.948C7.74293 22.0734 7.91014 22.1431 8.09129 22.1431H11.3659C12.0347 22.1431 12.6757 21.8783 13.1634 21.4045L22.5413 11.9989C23.3913 11.135 23.3913 9.74154 22.5413 8.89154L20.7298 7.08009Z" fill="#0C7FDA"/>
</svg>
